<?xml version="1.0" encoding="utf-8"?>
<!-- Generator: Adobe Illustrator 16.0.0, SVG Export Plug-In . SVG Version: 6.00 Build 0)  -->
<!DOCTYPE svg PUBLIC "-//W3C//DTD SVG 1.1//EN" "http://www.w3.org/Graphics/SVG/1.1/DTD/svg11.dtd">
<svg version="1.1" xmlns="http://www.w3.org/2000/svg" xmlns:xlink="http://www.w3.org/1999/xlink" x="0px" y="0px" width="36px"
	 height="40px" viewBox="0 0 36 40" enable-background="new 0 0 36 40" xml:space="preserve">
<g id="Layer_2">
	<rect fill="#1C3664" width="36.066" height="40"/>
</g>
<g id="Layer_1">
	<g>
		<path fill="#FFFFFF" d="M35.443,22.885C35.443,32.338,27.752,40,18.26,40C8.77,40,1.076,32.338,1.076,22.885
			C1.076,13.432,8.77,5.77,18.26,5.77C27.752,5.77,35.443,13.432,35.443,22.885z M18.26,8.22c-8.197,0-14.843,6.602-14.843,14.743
			c0,8.143,6.646,14.744,14.843,14.744c8.197,0,14.843-6.602,14.843-14.744C33.104,14.821,26.457,8.22,18.26,8.22z"/>
		<polyline fill="#FFFFFF" points="15.126,6.054 15.126,0.947 18.26,0.394 21.393,1.263 21.393,6.054 		"/>
		<polygon fill="#FFFFFF" points="27.98,8.77 31.402,5.215 34.248,6.993 36.066,9.485 32.506,13.308 		"/>
		<path fill="#FFFFFF" d="M19.467,23.24c0,0.393-0.319,0.711-0.712,0.711h-0.949c-0.393,0-0.712-0.318-0.712-0.711V11.461
			c0-0.393,0.319-0.71,0.712-0.71h0.949c0.393,0,0.712,0.318,0.712,0.71V23.24z"/>
	</g>
</g>
</svg>
