<?xml version="1.0" encoding="utf-8"?>
<!-- Generator: Adobe Illustrator 16.0.0, SVG Export Plug-In . SVG Version: 6.00 Build 0)  -->
<!DOCTYPE svg PUBLIC "-//W3C//DTD SVG 1.1//EN" "http://www.w3.org/Graphics/SVG/1.1/DTD/svg11.dtd">
<svg version="1.1" id="Layer_1" xmlns="http://www.w3.org/2000/svg" xmlns:xlink="http://www.w3.org/1999/xlink" x="0px" y="0px"
	 width="44px" height="70px" viewBox="0 0 44 70" enable-background="new 0 0 44 70" xml:space="preserve">
<rect fill="#0873AF" width="44.68" height="70.334"/>
<path fill="#FFFFFF" d="M11.941,47.611c-0.637-3.126-1.76-5.729-3.12-8.14c-1.009-1.79-2.177-3.441-3.259-5.174
	c-0.361-0.579-0.673-1.191-1.02-1.792c-0.694-1.202-1.256-2.595-1.221-4.402c0.036-1.767,0.546-3.182,1.283-4.341
	c1.21-1.904,3.239-3.466,5.962-3.875c2.226-0.335,4.312,0.231,5.792,1.097c1.209,0.706,2.147,1.651,2.857,2.764
	c0.743,1.162,1.255,2.535,1.298,4.325c0.021,0.917-0.128,1.767-0.339,2.471c-0.214,0.713-0.56,1.31-0.867,1.946
	c-0.597,1.243-1.348,2.382-2.1,3.522C14.966,39.406,12.862,42.868,11.941,47.611z M8.906,28.083c0,1.664,1.349,3.013,3.011,3.013
	c1.664,0,3.012-1.349,3.012-3.013c0-1.663-1.349-3.011-3.012-3.011C10.254,25.072,8.906,26.42,8.906,28.083z"/>
<line fill="#FFFFFF" stroke="#FFFFFF" stroke-width="2" stroke-miterlimit="10" x1="35.581" y1="42.966" x2="44" y2="56.365"/>
<rect x="39.636" y="47.608" transform="matrix(0.5135 0.8581 -0.8581 0.5135 61.7572 -11.6802)" fill="#FFFFFF" stroke="#FFFFFF" stroke-miterlimit="10" width="3.086" height="2.034"/>
<line fill="#FFFFFF" stroke="#FFFFFF" stroke-width="2" stroke-miterlimit="10" x1="23.304" y1="52.297" x2="25.197" y2="66.048"/>
<line fill="#FFFFFF" stroke="#FFFFFF" stroke-width="2" stroke-miterlimit="10" x1="28.205" y1="52.297" x2="28.485" y2="66.175"/>
<line fill="#FFFFFF" stroke="#FFFFFF" stroke-width="2" stroke-miterlimit="10" x1="32.682" y1="51.834" x2="32.738" y2="65.715"/>
<line fill="#FFFFFF" stroke="#FFFFFF" stroke-width="2" stroke-miterlimit="10" x1="37.772" y1="51.863" x2="36.493" y2="65.686"/>
<line fill="#FFFFFF" stroke="#FFFFFF" stroke-width="3" stroke-miterlimit="10" x1="24.251" y1="66.276" x2="37.133" y2="66.247"/>
<line fill="#FFFFFF" stroke="#FFFFFF" stroke-width="2" stroke-miterlimit="10" x1="22.531" y1="52.114" x2="38.528" y2="52.114"/>
<path fill="#FFFFFF" stroke="#FFFFFF" stroke-miterlimit="10" d="M24.251,42.685c4.104,1.895,3.332,4.094,3.332,4.094l-1.895,0.817
	l5.003,2.069l2.047-5.297l-2.047,0.491c0,0-5.898-9.721-12.58-1.824C17.34,43.947,20.146,40.79,24.251,42.685z"/>
</svg>
