<?xml version="1.0" encoding="utf-8"?>
<!-- Generator: Adobe Illustrator 16.0.0, SVG Export Plug-In . SVG Version: 6.00 Build 0)  -->
<!DOCTYPE svg PUBLIC "-//W3C//DTD SVG 1.1//EN" "http://www.w3.org/Graphics/SVG/1.1/DTD/svg11.dtd">
<svg version="1.1" id="Layer_1" xmlns="http://www.w3.org/2000/svg" xmlns:xlink="http://www.w3.org/1999/xlink" x="0px" y="0px"
	 width="44px" height="70px" viewBox="0 0 44 70" enable-background="new 0 0 44 70" xml:space="preserve">
<rect fill="#0873AF" width="44" height="70.334"/>
<path fill="#FFFFFF" d="M20.076,55.611c-0.953-4.676-2.632-8.567-4.667-12.174c-1.509-2.676-3.256-5.145-4.874-7.738
	c-0.54-0.866-1.006-1.781-1.524-2.68c-1.038-1.797-1.879-3.881-1.826-6.583c0.053-2.642,0.816-4.759,1.918-6.492
	c1.81-2.848,4.845-5.184,8.917-5.797c3.329-0.501,6.449,0.346,8.662,1.64c1.809,1.057,3.211,2.47,4.273,4.135
	c1.112,1.737,1.877,3.791,1.941,6.468c0.032,1.372-0.191,2.642-0.508,3.696c-0.32,1.066-0.836,1.958-1.295,2.91
	c-0.894,1.859-2.017,3.563-3.141,5.268C24.6,43.34,21.454,48.518,20.076,55.611z M15.536,26.405c0,2.488,2.017,4.505,4.504,4.505
	c2.489,0,4.506-2.017,4.506-4.505c0-2.487-2.018-4.504-4.506-4.504C17.553,21.901,15.536,23.918,15.536,26.405z"/>
<rect x="31.899" y="44.221" fill="none" width="22.667" height="12.667"/>
<text transform="matrix(1 0 0 1 31.8994 52.7412)" fill="#FFFFFF" font-family="'MyriadPro-Regular'" font-size="12">+</text>
</svg>
