<?xml version="1.0" encoding="utf-8"?>
<!-- Generator: Adobe Illustrator 16.0.0, SVG Export Plug-In . SVG Version: 6.00 Build 0)  -->
<!DOCTYPE svg PUBLIC "-//W3C//DTD SVG 1.1//EN" "http://www.w3.org/Graphics/SVG/1.1/DTD/svg11.dtd">
<svg version="1.1" id="Layer_1" xmlns="http://www.w3.org/2000/svg" xmlns:xlink="http://www.w3.org/1999/xlink" x="0px" y="0px"
	 width="83px" height="98px" viewBox="0 0 83 98" enable-background="new 0 0 83 98" xml:space="preserve">
<g>
	<polygon fill="#7C7C7C" points="0,97.753 47.468,14.282 70.395,14.765 82.987,96.805 	"/>
	<polygon fill="#FFFFFF" points="11.301,96.805 50.05,14.282 51.666,14.282 16.791,96.805 	"/>
	<polygon fill="#FCFCFC" points="46.366,98 49.941,79.142 55.695,79.322 52.543,98 	"/>
	<polygon fill="#FCFCFC" points="52.543,68.736 55.695,48.251 58.368,48.251 55.695,68.736 	"/>
	<polygon fill="#FCFCFC" points="59.58,41.748 61.012,31.342 59.079,31.342 57.145,41.748 	"/>
	<polyline fill="#FCFCFC" points="59.891,27.767 60.456,21.21 62.136,21.21 61.323,27.767 59.891,27.767 	"/>
	<polygon fill="#FCFCFC" points="61.16,18.447 62.623,18.447 63.219,14.653 61.647,14.653 61.16,18.174 	"/>
</g>
</svg>
