<?xml version="1.0" encoding="utf-8"?>
<!-- Generator: Adobe Illustrator 16.0.0, SVG Export Plug-In . SVG Version: 6.00 Build 0)  -->
<!DOCTYPE svg PUBLIC "-//W3C//DTD SVG 1.1//EN" "http://www.w3.org/Graphics/SVG/1.1/DTD/svg11.dtd">
<svg version="1.1" id="Layer_1" xmlns="http://www.w3.org/2000/svg" xmlns:xlink="http://www.w3.org/1999/xlink" x="0px" y="0px"
	 width="480px" height="800px" viewBox="0 0 480 800" enable-background="new 0 0 480 800" xml:space="preserve">
<rect fill="#0873AF" stroke="#000000" stroke-miterlimit="10" width="481" height="800"/>
<polygon opacity="0.4" fill="#1B3D3F" points="77.345,577 273.802,655.404 430.113,604 481,601.427 480.801,569 480,522.632 
	215,514 "/>
<rect x="47.433" y="252.505" fill="none" width="519.018" height="42.334"/>
<text transform="matrix(1 0 0 1 47.4326 288.0366)" fill="#106B75" font-family="'SegoeUI-Bold'" font-size="48">orienteering guide</text>
<rect x="47.433" y="250.491" fill="none" width="519.017" height="42.334"/>
<text transform="matrix(1 0 0 1 47.4331 286.0225)" fill="#FFFFFF" stroke="#FFFFFF" stroke-miterlimit="10" font-family="'SegoeUI-Bold'" font-size="48">orienteering guide</text>
<rect x="115" y="300" fill="none" width="562" height="105"/>
<text transform="matrix(1 0 0 1 115 317.7656)" fill="#106B75" font-family="'SegoeUI-Bold'" font-size="24">start training your orienteering</text>
<rect x="115" y="299" fill="none" width="562" height="105"/>
<text transform="matrix(1 0 0 1 115 316.7656)" fill="#FCFCFC" font-family="'SegoeUI-Bold'" font-size="24">start training your orienteering</text>
<polygon fill="#1C3664" points="77.345,558.034 231.095,417.098 338.29,453.398 436.947,421.368 480,439.254 481,601.427 
	430.113,577.251 273.802,655.404 "/>
<polygon fill="#FFFFFF" points="277.005,636.834 107.24,555.476 236.004,426.07 335.301,462.585 437.16,422.227 480,439.254 
	481,601.427 430.113,563.804 "/>
<line fill="#1C3664" stroke="#1C3564" stroke-miterlimit="10" x1="277.005" y1="636.834" x2="335.301" y2="462.585"/>
<line fill="#1C3664" stroke="#1C3564" stroke-miterlimit="10" x1="430.113" y1="563.804" x2="437.16" y2="422.227"/>
<title>Layer 1</title>
<path fill="#1C3564" d="M401.657,474.694c-2.636-12.944-7.286-23.716-12.917-33.7c-4.178-7.408-9.016-14.242-13.494-21.424
	c-1.493-2.396-2.783-4.93-4.219-7.418c-2.872-4.975-5.2-10.743-5.053-18.226c0.146-7.311,2.259-13.174,5.309-17.971
	c5.012-7.885,13.412-14.352,24.685-16.051c9.214-1.388,17.854,0.958,23.981,4.541c5.006,2.929,8.883,6.838,11.828,11.447
	c3.078,4.81,5.197,10.493,5.374,17.906c0.089,3.798-0.53,7.314-1.407,10.23c-0.887,2.954-2.312,5.422-3.582,8.059
	c-2.477,5.146-5.582,9.863-8.696,14.581C414.184,440.723,405.474,455.056,401.657,474.694z M389.093,393.844
	c0,6.888,5.583,12.471,12.47,12.471c6.889,0,12.473-5.583,12.473-12.471c0-6.887-5.584-12.47-12.473-12.47
	C394.676,381.374,389.093,386.957,389.093,393.844z"/>
</svg>
