<?xml version="1.0" encoding="utf-8"?>
<!-- Generator: Adobe Illustrator 16.0.0, SVG Export Plug-In . SVG Version: 6.00 Build 0)  -->
<!DOCTYPE svg PUBLIC "-//W3C//DTD SVG 1.1//EN" "http://www.w3.org/Graphics/SVG/1.1/DTD/svg11.dtd">
<svg version="1.1" id="Layer_1" xmlns="http://www.w3.org/2000/svg" xmlns:xlink="http://www.w3.org/1999/xlink" x="0px" y="0px"
	 width="64px" height="64px" viewBox="0 0 64 64" enable-background="new 0 0 64 64" xml:space="preserve">
<g id="Layer_3">
</g>
<path fill="#1C3664" stroke="#1C3564" stroke-miterlimit="10" d="M60.746,67.016"/>
<path fill="#1C3564" d="M26.588,61.627c-1.34-6.588-3.708-12.07-6.574-17.15c-2.126-3.771-4.589-7.25-6.868-10.903
	c-0.76-1.22-1.417-2.508-2.147-3.776c-1.461-2.531-2.646-5.467-2.571-9.274c0.074-3.722,1.149-6.706,2.702-9.146
	c2.55-4.013,6.826-7.305,12.563-8.17c4.689-0.706,9.086,0.488,12.206,2.311c2.55,1.491,4.521,3.48,6.021,5.826
	c1.565,2.448,2.646,5.342,2.735,9.114c0.046,1.932-0.27,3.721-0.717,5.206c-0.451,1.503-1.178,2.76-1.824,4.102
	c-1.258,2.619-2.84,5.019-4.426,7.421C32.965,44.338,28.531,51.633,26.588,61.627z M20.193,20.479c0,3.505,2.842,6.347,6.347,6.347
	s6.349-2.842,6.349-6.347c0-3.504-2.844-6.346-6.349-6.346C23.036,14.133,20.193,16.975,20.193,20.479z"/>
<g>
	<g>
		<g>
			<path fill="#0873AF" d="M38.258,8.855c6.438,6.439,6.438,16.878,0,23.317c-6.442,6.441-16.88,6.441-23.319,0
				c-6.439-6.439-6.439-16.878,0-23.317C21.377,2.417,31.816,2.417,38.258,8.855z M16.513,10.594c-5.521,5.521-5.521,14.469,0,19.99
				c5.519,5.52,14.469,5.52,19.989,0c5.52-5.521,5.52-14.47,0-19.99C30.982,5.075,22.032,5.075,16.513,10.594z"/>
			<path fill="#0873AF" d="M41.65,30.542c0.508,0.509,0.508,1.334,0,1.844l-3.865,3.865c-0.51,0.51-1.336,0.51-1.844,0l-0.648-0.647
				c-0.51-0.508-0.51-1.334,0.002-1.845l3.863-3.866c0.51-0.508,1.334-0.508,1.846,0L41.65,30.542z"/>
			<path fill="#0873AF" d="M58.469,49.674c0.559,0.559,1.443,2.578,0.887,3.135l-1.051,1.053c-0.559,0.56-2.822-0.084-3.381-0.645
				l-17.33-18.045c-0.557-0.559-0.557-1.463,0-2.021l1.053-1.051c0.56-0.557,1.463-0.559,2.021,0L58.469,49.674z"/>
		</g>
	</g>
</g>
</svg>
